<?xml version="1.0" encoding="utf-8"?>
<!-- Generator: Adobe Illustrator 24.3.0, SVG Export Plug-In . SVG Version: 6.00 Build 0)  -->
<svg version="1.1" id="Layer_1" xmlns="http://www.w3.org/2000/svg" xmlns:xlink="http://www.w3.org/1999/xlink" x="0px" y="0px"
	 viewBox="0 0 120 36" style="enable-background:new 0 0 120 36;" xml:space="preserve">
<style type="text/css">
	.st0{fill:#F6F6F6;}
</style>
<g>
	<path class="st0" d="M113.1,9.6c-1.7-2.3-6.9-2-9.5-1.8c-4.5,0.4-9,1-13.4,1.4c-1.4,0.1-3,0.4-4.3-0.3c-1.3-0.6-1.7-1.8-2.7-2.5
		c-1-0.7-2.4-0.6-3.4,0.1c-1.3,0.9-2.2,2.4-3.6,3.2c-0.6,0.4-1.3,0.6-2,0.7c-1.5,0.3-3.3,0-4.7,0.9c-0.5,0.4-0.6,1-0.1,1.4
		c0.3,0.3,0.8,0.4,1.2,0.5c1.4,0.3,3.6-0.1,4.3,1.1c0.5,1.1-0.6,2.2-1.3,3c-1.8,1.6-4.7,3.8-7.1,2.3c-0.8-0.5-1.4-1.3-2.1-2
		c-2.3-2.1-7.9-2.6-10.6-1.2c-0.8,0.4-1.5,1.5-0.7,2.1c1.3,0.9,3.3-0.2,4.8,0c1.2,0.1,1.5,1.1,0.2,1.5c-0.8,0.2-1.7,0.1-2.6,0
		c-1.1-0.1-2.2-0.1-3.2,0.1c-1,0.1-2.3,0.7-3.3,0.4c-0.8-0.3-0.9-1.2-0.7-1.9c0.8-2.3,3-4,5.3-5c1.7-0.7,3.5-1.2,5.4-1.4
		c1.1-0.2,2.4-0.2,3.3-0.9c0.9-0.7,0.9-2,0.3-2.8c-0.5-0.7-1.2-1.1-2.1-1.4c-1.6-0.5-3.4-0.4-5-0.2c-2.8,0.4-5.3,1.8-7.3,3.8
		c-1.8,1.9-3,4.3-4.7,6.2c-1.3,1.7-3.6,2-5.3,0.7c-2.3-1.6-1.7-4.7-3.3-6.4c-0.8-0.8-2.1-1.2-3.2-0.8c-2.4,0.8-3.4,3.8-4.7,5.8
		c-1.8,2.5-4.4,4.5-7.3,5.6c-1.2,0.4-2.5,0.7-3.8,0.7c-1,0.1-2,0.1-3,0c-1.4,0-2.8-0.1-4.1,0.3c-4,1.3-2.2,4.5,0.9,5.5
		c4.2,1.2,8.5,0,12.2-2.1c1.2-0.7,2.4-1.4,3.6-2.3c1.6-1.1,3.4-2.8,5.4-2c2.9,1.2,3.4,5.2,6.4,6.3c1.1,0.4,2.5,0.4,3.6,0.1
		c1.2-0.3,2.2-1.4,3.5-1.4c1.5-0.1,2.6,1,3.9,1.5c2,0.8,4.3,1.2,6.4,1.2c2.2,0,4.2-0.6,6.2-1.6c0.9-0.4,1.9-0.6,2.8-0.3
		c0.8,0.2,1.6,0.6,2.4,0.7c2.2,0.5,4.4-0.5,6.3-1.5c0.6-0.3,1.2-0.6,1.9-0.6c0.5,0,1,0.1,1.4,0.4c0.3,0.2,0.6,0.4,0.9,0.6
		c3.5,2.9,8.6,0.8,12.9,1.1c1.2,0,2.4,0.1,3.5,0.2c1.5,0,4.5,0.4,4.9-1.5c0.1-0.6-0.1-1.2-0.3-1.8c-0.2-1.1,0.2-2,0.5-3
		c0.2-0.7,0.3-1.4,0.2-2c-0.2-2.1-2-3.6-4-4.1c-2.4-0.6-4.8,0-7.1,0.1c-0.9,0-1.8,0.1-2.7-0.2c-0.7-0.2-1.2-0.9-0.8-1.6
		c0.2-0.5,0.7-0.7,1.1-1c4.3-1.8,9.1-2.4,13.7-2.3c2.8,0.1,5.7,0.5,8.4,1.3c1.5,0.4,4.1,1.1,5.5,0.4
		C113.7,12.5,113.9,10.7,113.1,9.6L113.1,9.6z M58.5,25.2c-0.5,0.6-1.3,1-2.1,1.2c-1.1,0.3-2.3,0.3-3.3-0.3
		c-0.6-0.4-1.1-1.2-0.8-1.9c0.3-0.7,1-1,1.7-1.3c1.3-0.5,3.7-0.8,4.7,0.2C59.3,23.7,59,24.7,58.5,25.2L58.5,25.2z M91.9,23.9
		c0.3,2-4,2.9-5.7,2.6c-0.6-0.1-1.2-0.3-1.6-0.7c-0.5-0.6-0.2-1.4,0.3-1.8c0.4-0.4,1-0.7,1.6-0.9C87.9,22.6,91.4,22,91.9,23.9
		L91.9,23.9z M87.1,19.1c0.7,0.1,1.3,0.7,0.8,1.4c-0.6,0.7-1.7,0.9-2.5,1c-1.3,0.2-2.6,0.4-3.9,0.5c-0.4,0-1.4-0.1-1.1-0.7
		c0.3-0.4,0.9-0.6,1.3-0.9c0.4-0.2,0.8-0.3,1.2-0.5C84.2,19.5,85.7,18.9,87.1,19.1L87.1,19.1z"/>
	<g>
		<path class="st0" d="M98.7,15.8h-0.4c-0.2,0-0.5-0.2-0.5-0.4V15c0-0.2,0.2-0.4,0.5-0.4h4.4c0.2,0,0.5,0.2,0.5,0.4v0.3
			c0,0.2-0.2,0.4-0.5,0.4h-0.4c-0.2,0-0.5,0.2-0.5,0.4v1.5c0,0.2-0.2,0.4-0.5,0.4h-1.8c-0.2,0-0.5-0.2-0.5-0.4v-1.5
			C99.2,15.9,99,15.8,98.7,15.8z"/>
		<path class="st0" d="M104.1,14.5h1.8c0.2,0,0.5,0.2,0.5,0.4v1.7c0,0,0,0.1,0.1,0.1c0,0,0.1,0,0.2,0c0.1,0,0.1,0,0.2,0
			c0,0,0.1,0,0.1-0.1l0.9-1.9c0.1-0.2,0.2-0.2,0.4-0.2h1.8c0.3,0,0.6,0.3,0.4,0.6l-1.4,2.7c-0.1,0.2-0.2,0.2-0.4,0.2h-4.5
			c-0.2,0-0.5-0.2-0.5-0.4V15C103.6,14.7,103.8,14.5,104.1,14.5z"/>
	</g>
</g>
</svg>
