<?xml version="1.0" encoding="utf-8"?>
<!-- Generator: Adobe Illustrator 24.3.0, SVG Export Plug-In . SVG Version: 6.00 Build 0)  -->
<svg version="1.1" id="Layer_1" xmlns="http://www.w3.org/2000/svg" xmlns:xlink="http://www.w3.org/1999/xlink" x="0px" y="0px"
	 viewBox="0 0 40 40" style="enable-background:new 0 0 40 40;" xml:space="preserve">
<style type="text/css">
	.st0{fill:#FF223D;}
</style>
<g>
	<g>
		<path class="st0" d="M35.1,21.7c0-3.3-1.6-5.7-4.7-7c-0.2-0.1-0.7-0.2-0.7-0.5c0.1-0.2,0.4-0.2,0.6-0.2c0.8,0,1.4,0.4,2.2,0.3
			c0.7-0.1,0.6-0.8,0.2-1.2c-1.3-0.9-2.9-1.2-4.4-1.4c-0.6-0.1-3.2,0.1-1.5-0.9c0.7-0.4,1.6-0.7,2.2-1.3c0.5-0.5,0.4-1.1-0.4-1.1
			c-0.4,0-0.7,0-1.1,0.1c-1.4,0.3-2.8,0.7-4,1.4c-0.5,0.3-1.1,0.6-1.5,1c-0.2,0.2-0.4,0.3-0.6,0.4c-1.1,0.5-0.9-1.2-0.9-1.9
			c-0.2-1.6-0.3-3.6-1.7-4.7c-0.4-0.3-0.9-0.3-1.2,0.1c-0.3,0.4-0.3,0.9-0.3,1.4c0,1.5,0.2,3,0.2,4.5c0,1.5-0.6,0-0.8-0.5
			c-0.7-1.4-1.5-2.6-2.2-3.9c-0.2-0.4-0.4-0.7-0.6-1.1c-0.4-0.7-0.7-1.5-1.7-1.2c-0.9,0.2-2.3,1.1-1.6,2.1c0.2,0.4,0.6,0.7,0.8,1
			c0.8,1,1.4,2.2,2,3.3c0.2,0.4,0.9,1.7,0.7,2c-0.2,0.1-1-0.7-1.3-0.8c-0.5-0.4-1.1-0.6-1.7-0.7c-0.6-0.2-1.1-0.3-1.6-0.6
			C9,10.2,8.3,9.6,7.7,10c-0.4,0.3-0.3,0.8-0.1,1.2c0.3,0.7,1,1.1,1.6,1.5c0.3,0.2,0.6,0.3,0.9,0.5c0.2,0.1,1.1,0.4,0.9,0.7
			c-0.3,0.2-0.8,0.1-1.2,0.2c-0.8,0-1.7,0.2-2.4,0.3c-0.9,0.2-1.8,0.4-2.7,0.5c-0.4,0-0.9,0-1.3,0.2c-0.6,0.2-0.6,0.9-0.1,1.2
			c0.6,0.4,1.3,0.5,2,0.6c0.8,0.1,1.6-0.1,2.4-0.2c1.2-0.1-1.9,2-2.1,2.2c-0.8,0.6-0.6,1.3,0.4,1.4c0.6,0.1,1.6-0.5,2,0.1
			c0.3,0.6-0.2,1.5-0.3,2.1c-0.8,3.3,2.3,5.8,4.6,7.8c3.4,2.8,6.8,5.5,11.1,6.7c2,0.6,4.2,0.5,6.1-0.2c1.5-0.6,2.7-1.4,3.5-2.8
			c0.4-0.7,0.5-1.5,0.8-2.3c0.5-1.5,0.7-3,0.7-4.6C34.6,25.6,34.9,24.3,35.1,21.7z M31.7,23c-0.1,1.1-0.4,2.2-0.4,3.4
			c0,1.1,0.1,2.3-0.1,3.4c-0.1,0.5-0.8,2.8-2.8,3.8c-1.6,0.8-3.1,0.4-4.8-0.1c-2.5-0.6-4.1-1.9-6.1-3.3c-1-0.7-1.6-1.3-2.8-2.4
			c-1.9-1.7-2.2-2.2-2.3-2.6c-0.8-1.7-0.3-3.4-0.2-3.6c0.5-1.6,1.7-2.4,2.5-2.9c0.6-0.4,1.4-0.9,1.9-0.7c0.5,0.3,0.5,1.3,1.2,1.8
			c0.1,0.1,0.2,0.1,0.3,0.1c0.4,0.1,0.8-0.3,0.9-0.4c0.7-0.6,0.4-1.4,1-1.9c0.1-0.1,0.3-0.2,0.5-0.3c1-0.2,2.1,1.2,3.1,1.5
			c0.1,0,0.3,0,0.6,0c0.3,0,0.4-0.2,0.4-0.5c0-0.5-0.2-0.9-0.2-0.9c-0.2-0.6-0.3-0.9-0.3-1c0.2-0.4,1.2-0.4,1.6-0.4
			c0.1,0,1.5,0.1,2.5,0.7c0.2,0.1,0.7,0.5,1.3,0.9c0,0,0.1,0,0.1,0.1c0.2,0.2,0.8,0.7,1.3,1.4C31.9,20.7,31.8,22.4,31.7,23z"/>
		<path class="st0" d="M15.3,21.3L15.3,21.3c-0.5,0.4-0.8,1-0.8,1.9c0,0.4,0.1,1.1,0.6,1.5c0.2,0.1,0.3,0.2,0.5,0.2
			c0.2,0,0.4-0.1,0.6-0.2c0.4-0.3,0.6-1,0.7-1.6c0.1-0.4,0.1-1.2-0.4-1.7C16,20.8,15.6,21.1,15.3,21.3z"/>
		<path class="st0" d="M18.3,26.1c-0.4,0-0.7,0.4-0.7,0.8c0,0,0,0.1,0,0.1c-0.1,0.7,0.2,1.4,0.8,1.9c0.5,0.5,1.4,0.6,1.6-0.2
			C20.1,27.9,19.4,26.1,18.3,26.1z"/>
		<path class="st0" d="M20.1,22.8c0.4,0.3,0.9,0.5,1.3,0c0.5-0.5,0.6-1.6,0.2-2.3l0,0c-0.2-0.5-0.6-0.6-0.9-0.7
			c-0.4-0.2-0.7-0.1-1,0.3c-0.2,0.3-0.3,0.7-0.3,1.1c0,0.2,0,0.4,0.1,0.6C19.6,22.3,19.9,22.6,20.1,22.8z"/>
		<path class="st0" d="M25.6,31.4c0.1-0.3,0.1-0.8,0-1.2c-0.1-0.2-0.2-0.4-0.3-0.6c-0.3-0.4-0.6-0.7-0.9-0.9
			c-0.5-0.2-1.1-0.2-1.4,0.3c-0.4,0.7-0.2,1.8,0.4,2.5l0,0c0.4,0.4,0.8,0.5,1.1,0.5C25,32.1,25.4,31.9,25.6,31.4z"/>
		<path class="st0" d="M29,21c0-0.8-0.6-1.7-1.5-2.2l0,0c-0.5-0.3-0.9-0.2-1.2-0.2c-0.4,0.1-0.6,0.3-0.6,0.9c0,0.3,0.2,0.8,0.5,1.2
			c0.2,0.2,0.3,0.4,0.5,0.5c0.4,0.3,0.8,0.5,1.2,0.5C28.5,21.8,29,21.6,29,21z"/>
		<path class="st0" d="M25.3,24.3c-0.2-0.6-0.6-1.2-1.2-1.3c-0.3,0-0.5,0-0.7,0.2c-0.3,0.3-0.4,0.7-0.3,1.1c0.1,0.4,0.2,0.7,0.3,1
			c0.2,0.5,0.7,0.9,1.2,0.9c0.2,0,0.5-0.1,0.6-0.3c0-0.1,0.1-0.1,0.1-0.2C25.5,25.3,25.5,24.7,25.3,24.3L25.3,24.3z"/>
		<path class="st0" d="M30.1,26.5c-0.2-0.6-0.6-1-0.9-1.3c-0.2-0.1-0.3-0.2-0.5-0.2c-0.2,0-0.5,0.1-0.7,0.4
			c-0.2,0.2-0.3,0.5-0.4,0.8c-0.1,0.6,0.1,1.2,0.3,1.7c0.3,0.6,0.7,1,1.2,0.9C29.6,28.6,30.4,27.5,30.1,26.5L30.1,26.5z"/>
	</g>
	<g>
		<g>
			<path class="st0" d="M21.9,4.9h-0.4c-0.3,0-0.5-0.2-0.5-0.5V4c0-0.3,0.2-0.5,0.5-0.5h5c0.3,0,0.5,0.2,0.5,0.5v0.4
				c0,0.3-0.2,0.5-0.5,0.5H26c-0.3,0-0.5,0.2-0.5,0.5v1.7c0,0.3-0.2,0.5-0.5,0.5h-2.1c-0.3,0-0.5-0.2-0.5-0.5V5.4
				C22.4,5.2,22.2,4.9,21.9,4.9z"/>
			<path class="st0" d="M28,3.6h2c0.3,0,0.5,0.2,0.5,0.5v1.9c0,0.1,0,0.1,0.1,0.1c0.1,0,0.1,0,0.2,0c0.1,0,0.1,0,0.2,0
				C31,6.1,31,6,31,6l1.1-2.1c0.1-0.2,0.3-0.3,0.5-0.3h2c0.4,0,0.6,0.4,0.5,0.7l-1.5,3.1c-0.1,0.2-0.3,0.3-0.5,0.3H28
				c-0.3,0-0.5-0.2-0.5-0.5V4C27.4,3.8,27.7,3.6,28,3.6z"/>
		</g>
		<g>
			<path class="st0" d="M21.9,4.9h-0.4c-0.3,0-0.5-0.2-0.5-0.5V4c0-0.3,0.2-0.5,0.5-0.5h5c0.3,0,0.5,0.2,0.5,0.5v0.4
				c0,0.3-0.2,0.5-0.5,0.5H26c-0.3,0-0.5,0.2-0.5,0.5v1.7c0,0.3-0.2,0.5-0.5,0.5h-2.1c-0.3,0-0.5-0.2-0.5-0.5V5.4
				C22.4,5.2,22.2,4.9,21.9,4.9z"/>
			<path class="st0" d="M28,3.6h2c0.3,0,0.5,0.2,0.5,0.5v1.9c0,0.1,0,0.1,0.1,0.1c0.1,0,0.1,0,0.2,0c0.1,0,0.1,0,0.2,0
				C31,6.1,31,6,31,6l1.1-2.1c0.1-0.2,0.3-0.3,0.5-0.3h2c0.4,0,0.6,0.4,0.5,0.7l-1.5,3.1c-0.1,0.2-0.3,0.3-0.5,0.3H28
				c-0.3,0-0.5-0.2-0.5-0.5V4C27.4,3.8,27.7,3.6,28,3.6z"/>
		</g>
	</g>
</g>
</svg>
